<?xml version="1.0" encoding="UTF-8"?>
<svg xmlns="http://www.w3.org/2000/svg" viewBox="0 0 175 280">
  <g id="human_body_front">

    <!-- Head -->
    <path id="front_head" title="Head" class="muscle" d="m 88.9,47.5 3.5,-0.001 1.56841,-1.2182 1.5684,-1.21819 2.38993,-4.81223 2.389921,-4.81223 -1.116551,-0.69006 -1.11655,-0.69007 -0.6791,-3.99771 -0.6791,-3.9977 -0.48651,-1.77029 -0.4865,-1.77029 -6.67618,0.63659 -6.67617,0.63659 -1.22847,1.54539 -1.22847,1.54538 0.60621,2.41536 0.60622,2.41536 -1.22385,2.28678 -1.22384,2.28677 1.5961,3.08652 1.5961,3.08652 v 1.49997 1.49997 l 1.75,1.01928 1.75,1.01928 z" />

    <!-- Neck -->
    <path id="front_neck" title="Neck" class="muscle" d="m 88.323357,72.965088 c -0.04882,-4.894938 -0.836851,-6.571194 -4.110854,-8.744382 -2.938058,-1.950197 -2.473751,-2.572485 0.815588,-1.093091 l 2.085501,0.937963 0.141606,-1.083153 c 0.07788,-0.595735 -1.004573,-4.127161 -2.405457,-7.847614 -1.400886,-3.720453 -2.49076,-6.830163 -2.421944,-6.910467 0.06882,-0.0803 1.624913,0.309542 3.457994,0.866323 l 3.332874,1.012329 2.903318,-0.980466 c 1.596825,-0.539256 2.988548,-0.895235 3.092718,-0.791065 0.395342,0.395342 -1.507529,6.274137 -3.010925,9.302059 -1.280352,2.578698 -2.087435,5.999316 -1.415517,5.999316 0.0839,0 1.705869,-0.528317 3.604367,-1.174038 4.186919,-1.424063 5.237162,-1.459934 2.292989,-0.07832 -1.192594,0.559651 -3.25303,2.0008 -4.578747,3.202554 -2.362729,2.141799 -2.411099,2.239305 -2.44612,4.930958 -0.01965,1.510273 -0.320563,3.485595 -0.668695,4.389604 -0.621843,1.614764 -0.633596,1.580694 -0.668696,-1.938513 z"/>
    <path id="front_right_neck" title="Right Neck" class="muscle" d="m 93.193276,60.147203 c 0,-0.344995 3.065109,-7.336676 3.349069,-7.639411 0.06663,-0.07103 1.410992,1.155859 2.987476,2.726428 3.262219,3.249981 3.342969,2.95178 -1.009243,3.727443 -1.57864,0.28135 -3.42309,0.748519 -4.098778,1.038153 -0.942291,0.403913 -1.228524,0.438252 -1.228524,0.147387 z"/>
    <path id="front_left_neck" title="Left Neck" class="muscle" d="m 80.02289,59.258056 c -2.102262,-0.516275 -3.877872,-0.994258 -3.945798,-1.062184 -0.06793,-0.06793 1.096111,-1.338047 2.586752,-2.82249 2.629752,-2.618818 2.718315,-2.678183 2.981625,-1.998628 0.149253,0.385196 0.867041,1.978523 1.595085,3.540726 0.728043,1.562203 1.323715,2.95363 1.323715,3.092061 0,0.348286 -0.217313,0.312421 -4.541379,-0.749485 z"/>

    <!-- Chest -->
    <path id="front_right_chest" title="Right Chest" class="muscle" d="m 73.029874,83.199584 c -1.705755,-0.265227 -6.109765,-2.499225 -8.167022,-4.142841 -0.988028,-0.789372 -1.823491,-1.454026 -1.856584,-1.477011 -0.03309,-0.02298 1.276749,-2.129294 2.91076,-4.680689 2.815577,-4.39633 3.106805,-4.769147 5.569439,-7.129759 l 2.598511,-2.490859 h 2.407129 2.40713 l 2.788995,2.116363 c 1.533948,1.163999 3.063115,2.33777 3.398152,2.608379 0.570724,0.460976 0.647449,0.71865 1.21613,4.084287 0.460451,2.725088 0.607026,4.283125 0.607179,6.454109 l 2.01e-4,2.861838 -1.95829,1.009298 -1.958293,1.009297 -4.451748,-0.0288 c -2.448462,-0.01584 -4.928722,-0.102965 -5.511689,-0.193611 z"/>
    <path id="front_left_chest" title="Left Chest" class="muscle" d="m 93.273305,82.263575 c -1.717147,-0.931567 -1.747152,-1.051263 -1.706402,-6.807179 l 0.04148,-5.858938 3.556917,-3.019068 c 5.95225,-5.0522 9.27982,-4.068775 15.09834,4.462149 4.5232,6.631768 4.43321,7.365886 -1.24618,10.166521 -3.63512,1.792559 -4.79754,2.052395 -9.082459,2.030204 -3.106938,-0.01609 -5.556533,-0.374129 -6.661695,-0.973689 z"/>

    <!-- Abs -->
    <path id="abs" title="Abs" class="muscle" d="m 95.288617,96.126787 c -1.505388,-0.142774 -4.747233,-0.74501 -4.915344,-0.913121 -0.03493,-0.03493 -0.356886,-2.209882 -0.715457,-4.833226 l -0.651946,-4.769717 0.459465,-0.778736 c 0.306579,-0.519612 0.61121,-0.776584 0.915499,-0.772269 0.775919,0.011 9.28363,1.845331 9.45138,2.037791 0.139265,0.159779 1.294376,7.596503 1.288386,8.294782 -10e-4,0.148284 -0.58947,0.649106 -1.307107,1.112937 -1.408823,0.910566 -1.436922,0.914426 -4.524876,0.621559 z"/>
    <path id="abs" title="Abs" class="muscle" d="m 77.110644,95.668965 -1.006943,-0.433287 v -4.849255 -4.849255 l 2.384865,-0.0028 c 1.64236,-0.0019 3.506873,-0.193075 5.988661,-0.613949 1.982088,-0.336133 3.63619,-0.580715 3.675781,-0.543515 0.03959,0.0372 -0.139069,2.292915 -0.397023,5.012701 -0.388544,4.096682 -0.536058,5.015574 -0.85983,5.356043 -0.306065,0.32185 -1.116441,0.514679 -3.736743,0.889157 -4.080009,0.58309 -4.764098,0.586953 -6.048768,0.03416 z"/>
    <path id="abs" title="Abs" class="muscle" d="m 76.78125,106.67288 -0.677549,-0.69905 v -3.93891 -3.938917 l 3.762787,-0.135899 c 2.069533,-0.07474 4.740582,-0.193131 5.935665,-0.263081 l 2.172877,-0.127182 -0.0023,4.318079 -0.0023,4.31808 -1.555778,0.58297 c -1.479203,0.55427 -1.737895,0.58296 -5.255818,0.58296 h -3.70004 z"/>
    <path id="abs" title="Abs" class="muscle" d="m 89.816589,106.77737 -0.569631,-0.59457 v -4.17516 -4.175167 h 2.298011 c 1.263907,0 3.887258,0.06268 5.829671,0.139285 l 3.53166,0.139285 v 4.051487 4.05149 l -1.536914,0.5826 c -1.46604,0.55575 -1.708602,0.58245 -5.260039,0.57896 l -3.723127,-0.004 z"/>
    <path id="abs" title="Abs" class="muscle" d="m 84.901203,117.19493 c -2.102648,-0.45258 -7.256813,-1.88381 -7.441009,-2.06624 -0.325258,-0.32214 -1.356493,-4.3388 -1.356493,-5.28353 v -0.77732 h 5.273202 c 2.900261,0 5.57131,-0.0596 5.935664,-0.13249 l 0.662463,-0.1325 v 2.70819 c 0,2.43589 -0.05861,2.8646 -0.582967,4.26396 -0.575546,1.53597 -0.592412,1.55549 -1.324925,1.53348 -0.408077,-0.0123 -0.932748,-0.0634 -1.165935,-0.11355 z"/>
    <path id="abs" title="Abs" class="muscle" d="m 89.721878,113.95283 -0.657251,-3.50707 0.586108,-0.54868 0.586109,-0.54868 5.274242,-0.13011 c 2.900834,-0.0716 5.303854,-0.10048 5.340054,-0.0643 0.0362,0.0362 -0.12737,0.51649 -0.36349,1.06733 -0.29788,0.69493 -0.42937,1.46665 -0.42951,2.52087 l -2.1e-4,1.51933 -1.720251,0.92865 c -1.39566,0.75342 -2.308798,1.05516 -4.839401,1.59917 l -3.11915,0.67053 z"/>
    <path id="abs" title="Abs" class="muscle" d="m 84.357694,142.17629 c -0.872701,-1.08627 -1.171806,-1.80243 -3.053034,-7.30995 l -2.085549,-6.10569 -0.67325,-5.65964 c -0.370288,-3.11281 -0.654065,-5.68731 -0.630615,-5.72112 0.02345,-0.0338 0.772664,0.22853 1.66492,0.58297 1.512262,0.60073 1.807665,0.64444 4.355766,0.64444 h 2.733482 l 0.121845,0.58297 c 0.06701,0.32063 0.361845,2.08693 0.655179,3.92511 l 0.533334,3.34215 -0.638335,8.19427 c -0.351085,4.50684 -0.638335,8.32113 -0.638335,8.47618 0,0.17975 -0.249689,0.2766 -0.688961,0.26724 -0.575297,-0.0123 -0.848576,-0.21336 -1.656447,-1.21893 z"/>
    <path id="abs" title="Abs" class="muscle" d="m 90.430887,143.15781 c -0.04653,-0.15283 -0.273029,-3.71209 -0.503341,-7.90945 l -0.41875,-7.63157 0.570478,-4.18153 c 0.313763,-2.29985 0.612579,-4.21521 0.664036,-4.25637 0.05146,-0.0412 1.762964,-0.4198 3.803349,-0.84141 3.484467,-0.72002 3.73122,-0.74477 4.06262,-0.40737 0.329431,0.33539 0.249297,0.90046 -1.208355,8.52075 l -1.561184,8.16154 -1.875089,4.34575 -1.875089,4.34575 -0.787041,0.0659 c -0.51198,0.0429 -0.816606,-0.0312 -0.871634,-0.21199 z"/>

    <!-- Front deltoids -->
    <path id="right_front_deltoids" title="Front Right Deltoids" class="muscle" d="m 53.723937,78.715645 c -0.37882,-0.418591 -0.454435,-1.163798 -0.454435,-4.478588 v -3.976443 l 1.441571,-3.376922 1.441572,-3.376922 3.521694,-1.480382 3.521694,-1.480382 h 4.921796 4.921797 v 0.651928 c 0,0.509795 -0.400959,0.896141 -1.839099,1.772076 -1.803636,1.098548 -1.913886,1.23547 -5.717404,7.100555 l -3.878303,5.980408 -3.188965,1.37747 c -1.753932,0.757608 -3.279282,1.470142 -3.389669,1.583408 -0.335107,0.34385 -0.823551,0.23275 -1.302249,-0.296206 z"/>
    <path id="left_front_deltoids" title="Lront Left Deltoids" class="muscle" d="m 119.28269,77.365448 -3.31954,-1.845118 -3.54109,-5.326182 c -3.17603,-4.777093 -3.79335,-5.541886 -5.98795,-7.418516 l -2.44687,-2.092334 5.69341,-0.07429 5.69341,-0.07429 3.35239,2.056701 3.35239,2.056702 1.42868,3.419067 c 1.34347,3.215128 1.42868,3.558955 1.42868,5.764317 0,2.943478 -0.78847,5.388396 -1.73588,5.382674 -0.32895,-0.002 -2.09188,-0.833915 -3.91763,-1.848731 z"/>

    <!-- Obliques -->
    <path id="right_obliques" title="Right Obliques" class="muscle" d="m 75.891336,131.48338 c -1.457625,-1.42706 -4.094112,-4.00198 -5.858859,-5.72203 l -3.208631,-3.12736 1.358829,-11.75734 1.358829,-11.757332 -1.799728,-4.586253 c -1.736625,-4.425446 -1.814836,-4.69993 -2.230591,-7.828346 -0.537304,-4.043036 -0.539942,-4.221861 -0.05988,-4.0589 0.204039,0.06926 2.278872,0.781461 4.61074,1.582662 l 4.23976,1.45673 0.06717,0.677893 c 0.03694,0.372842 -0.08309,5.257725 -0.26674,10.855296 l -0.333912,10.1774 2.125289,12.01839 c 1.168908,6.61011 2.314433,12.52769 2.545611,13.15018 0.455866,1.22751 0.506159,1.51924 0.261333,1.51587 -0.08745,-0.001 -1.351593,-1.16979 -2.809218,-2.59686 z"/>
    <path id="left_obliques" title="Left Obliques" class="muscle" d="m 97.09105,136.06429 c 2.94e-4,-0.099 0.245596,-1.08622 0.545116,-2.19385 0.29952,-1.10764 1.261147,-5.49579 2.136949,-9.75145 l 1.592365,-7.73756 0.48447,-15.11159 c 0.26646,-8.311369 0.52414,-15.151248 0.57263,-15.199731 0.0485,-0.04848 1.60079,-0.618189 3.44958,-1.266014 1.84879,-0.647826 3.92832,-1.432266 4.62117,-1.7432 0.88181,-0.395733 1.3043,-0.493227 1.40828,-0.324978 0.0817,0.132197 0.41306,1.324869 0.73635,2.650383 l 0.58779,2.410026 -1.93283,3.57198 -1.93284,3.57198 0.13536,8.282704 c 0.0744,4.55549 0.26927,10.95376 0.43295,14.21838 l 0.2976,5.93566 -5.34881,5.36673 c -5.347607,5.36552 -7.787137,7.65917 -7.78613,7.32053 z"/>

    <!-- Bicep -->
    <path id="right_biceps" title="Right Biceps" class="muscle" d="m 49.181222,97.601147 v -6.802954 l 1.079201,-3.136534 1.079202,-3.136534 4.361827,-2.99191 4.361826,-2.991911 1.819561,0.976305 c 1.000759,0.536967 1.902486,1.053995 2.003838,1.148951 0.103678,0.09713 -0.108561,2.60966 -0.485254,5.744525 l -0.669531,5.57188 -1.846613,4.229811 -1.846614,4.229814 -4.62981,1.98075 c -2.546396,1.08942 -4.764321,1.98076 -4.928722,1.98076 -0.251014,0 -0.298911,-1.09011 -0.298911,-6.802953 z" />
    <path id="left_biceps" title="Left Biceps" class="muscle" d="m 123.94863,102.59824 c -3.18298,-1.36012 -3.61786,-1.62626 -5.61125,-3.434015 l -1.11787,-1.01377 -1.58778,-5.460668 -1.58777,-5.460668 0.21697,-2.488883 c 0.41776,-4.792102 0.29014,-4.406158 1.77054,-5.354495 0.71715,-0.459402 1.4223,-0.837279 1.56701,-0.839727 0.1447,-0.0024 1.98565,1.163829 4.091,2.591728 l 3.8279,2.596178 1.38382,2.650525 1.38381,2.650525 0.40315,6.041659 c 0.56474,8.463351 0.57867,8.109791 -0.3366,8.546251 -0.41204,0.19648 -0.86516,0.34804 -1.00695,0.33679 -0.14178,-0.0113 -1.66998,-0.62389 -3.39598,-1.36143 z"/>

    <!-- Forearm -->
    <path id="right_forearm" title="Right Forearm" class="muscle" d="m 34.41228,131.63652 c -1.030673,-0.89401 -1.839052,-1.80355 -1.796398,-2.02122 0.208191,-1.06243 8.140135,-21.26265 9.094311,-23.16041 0.855683,-1.70187 1.531154,-2.57599 3.089934,-3.99866 1.347094,-1.22947 2.054098,-1.70925 2.177277,-1.47751 0.100326,0.18874 0.4059,1.54791 0.679053,3.02037 0.494644,2.66643 0.499889,2.67721 1.303448,2.67721 0.443743,0 2.415914,-0.6796 4.382602,-1.51022 3.486992,-1.47271 4.323628,-1.72547 4.317225,-1.30428 -0.01421,0.93491 -1.832392,5.9131 -2.839914,7.77572 -1.160625,2.14566 -1.826543,2.87512 -9.089727,9.95709 l -7.837353,7.64181 -0.0017,1.55679 c -0.0016,1.43216 -0.0659,1.59329 -0.803254,2.01278 l -0.801518,0.45598 z"/>
    <path id="left_forearm" title="Left Forearm" class="muscle" d="m 138.25358,128.3305 -3.02044,-4.70202 -5.90358,-5.12335 -5.90358,-5.12334 -1.61481,-4.60734 c -1.0989,-3.13534 -1.52523,-4.69694 -1.33441,-4.88775 0.19082,-0.19082 1.45969,0.2157 3.97155,1.2724 l 3.69114,1.55282 1.00693,-0.5941 1.00694,-0.59411 v -2.44414 -2.44415 l 0.8924,0.0101 c 0.81728,0.009 1.09444,0.28308 3.29261,3.25335 l 2.40022,3.24327 4.12118,11.25317 c 2.26665,6.18924 4.12118,11.52274 4.12118,11.85223 0,0.42603 -0.43644,0.87826 -1.51092,1.5656 -0.83101,0.53159 -1.66506,1.02342 -1.85345,1.09296 -0.20688,0.0764 -1.53868,-1.73567 -3.36296,-4.57559 z"/>

    <!-- hand -->
    <path id="front_right_hand" title="Right Hand" class="muscle" d="m 27.443811,150.4 1.4562,-1.20854 0.99713,0.61627 0.99714,0.61626 1.05506,-4.28017 1.05506,-4.28018 0.95633,-3.44004 0.95634,-3.44004 -1.08717,-1.30996 -1.08717,-1.30996 h -1.21704 -1.21704 l -1.1224,2.46339 -1.1224,2.4634 -3.95405,2.49608 -3.95406,2.49609 -0.58544,0.94726 -0.58544,0.94726 2.14756,-0.5616 2.14756,-0.5616 -0.5033,2.63283 -0.50329,2.63282 1.85711,0.58942 1.85712,0.58943 v 1.05505 1.05506 z" />
    <path id="front_left_hand" title="Left Hand" class="muscle" d="m 152,150.52869 1.50767,-1.50767 h 0.92857 0.92857 v -2.60699 -2.60699 l 1.55194,0.59554 1.55194,0.59553 -0.636,-1.02906 -0.636,-1.02907 -3.95406,-2.49609 -3.95406,-2.49608 -1.12239,-2.4634 -1.1224,-2.46339 -0.58949,0.0318 -0.58948,0.0318 -1.70859,1.29815 -1.70858,1.29816 0.95019,3.42004 0.9502,3.42004 1.03567,4.20815 1.03566,4.20815 1.37157,-0.52632 1.37158,-0.52633 0.66491,1.07585 0.66491,1.07584 z"/>

    <!-- Quadriceps -->
    <path id="right_quadriceps1" title="Right Quadriceps 1" class="muscle" d="m 61.55618,146.64272 c 0.05952,-0.20404 0.46148,-2.01003 0.893237,-4.01331 0.503663,-2.33692 1.514679,-5.85034 2.820897,-9.80303 l 2.035884,-6.16069 0.900949,0.54056 c 1.076085,0.64565 1.04346,0.17756 0.501415,7.19416 l -0.376659,4.87572 -2.420745,3.54016 c -2.132311,3.11835 -2.522624,3.57932 -3.275784,3.86879 -1.085735,0.41728 -1.211839,0.41233 -1.079194,-0.0424 z" />
    <path id="right_quadriceps2" title="Right Quadriceps 2" class="muscle" d="m 69.187812,176.179 -3.106064,-6.93864 -0.92201,-4.69533 -0.92201,-4.69532 0.03325,-5.48641 0.03326,-5.48641 2.748588,-4.04807 c 1.557058,-2.29322 2.805307,-3.9405 2.879424,-3.7999 0.424477,0.80518 3.183683,11.03546 4.484097,16.62564 l 1.528218,6.56946 -1.353133,9.07003 c -1.301298,8.72258 -1.544097,9.8236 -2.16633,9.8236 -0.07217,0 -1.528956,-3.12239 -3.237291,-6.93865 z"/>
    <path id="right_quadriceps3" title="Right Quadriceps 3" class="muscle" d="m 63.207476,175.64328 -3.09206,-8.57929 0.01294,-4.00131 c 0.0081,-2.49066 0.254114,-5.73881 0.651749,-8.60345 0.635848,-4.58079 0.642355,-4.60255 1.402343,-4.69095 l 0.76353,-0.0888 -0.568679,1.89555 -0.568678,1.89555 1.050348,7.54134 1.050347,7.54135 2.514225,6.18412 2.514225,6.18412 -0.55209,1.6539 c -0.488655,1.46386 -0.640219,1.6535 -1.319112,1.65053 -0.744172,-0.003 -0.859139,-0.25895 -3.859084,-8.58266 z"/>
    <path id="right_quadriceps4" title="Right Quadriceps 4" class="muscle" d="m76.64,171.11l1.32,2.06l1.27,15.18l-1.69,0.11l-2.51,-2.36l0.11,-7.12l1.49,-7.87zl0,0z"/>
    <path id="left_quadriceps1" title="Left Quadriceps 1" class="muscle" d="m 103.32212,173.22708 -1.23267,-10.13885 2.66696,-10.71435 c 2.47969,-9.96202 2.71056,-10.71435 3.28795,-10.71435 0.455,0 1.24408,0.83493 2.95213,3.12368 l 2.33114,3.12367 v 7.79944 7.79943 l -1.28862,4.15058 c -0.70874,2.28283 -2.42376,6.74937 -3.81115,9.92567 -3.58232,8.20137 -3.35457,8.40355 -4.90574,-4.35492 z"/>
    <path id="left_quadriceps2" title="Left Quadriceps 2" class="muscle" d="m 112.26449,142.87388 -3.09066,-3.50385 0.001,-5.87662 0.001,-5.87662 0.66783,-0.38017 c 0.3673,-0.2091 0.73454,-0.3045 0.81609,-0.21199 0.37261,0.42269 4.16669,13.23212 4.77473,16.12028 0.63106,2.9975 0.65292,3.23282 0.30029,3.23282 -0.22575,0 -1.63631,-1.42393 -3.47096,-3.50385 z"/>
    <path id="left_quadriceps3" title="Left Quadriceps 3" class="muscle" d="m 109.59452,182.95685 c -0.34954,-1.24843 -0.29867,-1.44522 2.69514,-10.42678 l 3.0514,-9.15434 v -6.89761 -6.8976 l 0.84234,0.85737 0.84234,0.85737 0.18772,8.91664 0.18773,8.91664 -2.89968,7.44878 c -1.59483,4.09683 -2.89969,7.4945 -2.89969,7.55038 0,0.0559 -0.37148,0.1016 -0.82552,0.1016 -0.73084,0 -0.86637,-0.14593 -1.18178,-1.27245 z"/>
    <path id="left_quadriceps4" title="Left Quadriceps 4" class="muscle" d="m100.35,171.52l1.55,1l1.42,12.98l-2.57,2.98l-1.68,-0.04l0,-9.58l1.29,-7.34zl0,0z"/>
    <!-- Abductors -->
    <path id="right_abductors" title="Right Abductors" class="muscle" d="m 79.881651,175.87084 c -0.78348,-6.30146 -4.170784,-21.9874 -6.872077,-31.82325 -1.998746,-7.27775 -2.354562,-9.99817 -1.689927,-12.92046 0.290592,-1.27769 0.371322,-1.22016 3.95384,2.81769 2.011455,2.2671 5.29972,6.52433 7.307254,9.46051 l 3.650062,5.33851 -1.788859,12.4699 c -0.983873,6.85845 -2.274489,14.07149 -2.868035,16.02898 l -1.079177,3.55908 z"/>
    <path id="left_abductors" title="Left Abductors" class="muscle" d="m 95.338547,172.48315 c -0.580287,-3.68997 -1.453163,-8.77697 -1.939724,-11.30443 -0.519684,-2.69953 -0.884657,-6.63651 -0.884657,-9.54283 v -4.94742 l 5.018598,-6.57987 c 4.064716,-5.32923 8.940376,-10.60544 9.351856,-10.12014 0.0443,0.0522 -0.11201,2.35343 -0.34726,5.11384 -0.30503,3.57926 -1.29294,8.36139 -3.44402,16.67133 -1.65896,6.40883 -3.583573,14.82231 -4.276909,18.69663 -1.800696,10.06218 -2.177733,10.2804 -3.477884,2.01289 z"/>
    
    <!-- Knees -->
    <path  id="left_knee" title="Left Knee" class="muscle" d="m103.14,197l0.66,-4.5l0.16,3l0.17,3l0.84,1.33l0.85,1.34l2.14,-2.72l2.14,-2.72l0,-2.11l0.01,-2.12l2.57,3l2.56,3l-0.56,-2.5l-0.55,-2.5l-0.02,-4.47l-0.01,-4.48l-1.67,2.38l-1.66,2.38l-1.76,-2.18l-1.77,-2.17l-1.32,1.85l-1.32,1.85l-2.82,1.83l-2.82,1.83l0.58,2.3l0.57,2.29l1.19,2.8l1.18,2.79l0.66,-4.5z"/>
    <path id="right_knee" title="Right Knee" class="muscle" d="m77.82,196.5l0.62,-2.6l0.62,-2.6l-2.43,-1.1l-2.43,-1.11l-1.69,-2.58l-1.69,-2.59l-2.03,2.18l-2.02,2.17l-1.34,-1.83l-1.33,-1.82l-0.01,2.44l-0.01,2.44l-0.66,4l-0.65,4l1.66,-1.37l1.67,-1.37l0,-1.38l0,-1.38l1,0l1,0l0.02,1.75l0.02,1.75l1.91,2.49l1.91,2.48l0.72,-0.72l0.72,-0.72l-0.08,-3.02l-0.09,-3.01l0.94,0l0.93,0l0.04,4.25l0.04,4.25l2.64,-5z"/>

    <!-- Claves -->
    <path id="left_calves1" title="Left Calves1" class="muscle" d="m111.94,238.5l0.7,-0.44l1.34,-7.78l1.34,-7.78l0.06,-11.14l0.06,-11.14l-1.98,-2.19l-1.98,-2.19l-2.02,2.48l-2.02,2.48l-2,0.39l-2,0.39l0.19,1.46l0.2,1.46l3.13,8.5l3.12,8.5l0.58,8.72l0.57,8.72l0.71,-0.44z" />
    <path id="left_calves2" title="Left Calves2" class="muscle" d="m109.48,238l0.48,0l-0.62,-6.25l-0.62,-6.25l-1.94,-6.5l-1.94,-6.5l-1.39,-2.47l-1.39,-2.47l0.46,4.97l0.47,4.97l0.89,4.6l0.89,4.59l2.12,5.66l2.11,5.65l0.48,0z"/>
    <path id="right_calves1" title="Right Calves1" class="muscle" d="m67,230l0.67,-9.5l1.75,-5l1.75,-5l1.97,-3.89l1.98,-3.88l-1.34,-0.85l-1.34,-0.85l-1.17,-0.01l-1.17,-0.02l-1.98,-2.73l-1.99,-2.73l-2.06,2.48l-2.07,2.48l0,9.5l0,9.5l0.92,7.05l0.91,7.04l1.25,2.96l1.25,2.95l0.67,-9.5z" />
    <path id="right_calves2" title="Right Calves2" class="muscle" d="m70,234l2,-4.5l1.33,-6l1.33,-6l0.48,-4.73l0.47,-4.73l-0.81,0.5l-0.81,0.5l-2.03,5.41l-2.02,5.41l-1.04,8.29l-1.04,8.3l0.07,1.02l0.07,1.03l2,-4.5z"/>

    <!-- feet -->
    <path id="front_right_foot" title="Right Foot" class="muscle" d="m 61,270 4.42183,-0.19443 0.85747,-3 0.85748,-3 0.97598,-3.08562 0.97598,-3.08563 -1.01699,-5.36259 -1.017,-5.36259 -0.8241,-0.55179 -0.82411,-0.55178 -1.78444,-7 -1.78443,-7 -0.65859,-11 -0.6586,-11 -1.25054,7 -1.25055,7 2.02939,10.94289 2.02939,10.94289 v 3.24809 3.2481 l -0.97283,0.60124 -0.97282,0.60124 -1.13057,4.19861 -1.13057,4.19861 -1.89661,2.66353 -1.8966,2.66354 v 1.0123 1.01229 l 1.25,0.52777 1.25,0.52776 z" />
    <path id="front_left_foot" title="Left Foot" class="muscle" d="m 117.387191,270.29026 4.19098,-0.0153 1.32906,-0.84257 1.32906,-0.84256 -2.58883,-4.89213 -2.58882,-4.89212 -1.66599,-4 -1.66599,-4 0.26638,-4 0.26639,-4 1.39459,-6 1.39459,-6 -0.10354,-7 -0.10353,-7 -0.68569,-3 -0.68569,-3 -0.57443,9 -0.57444,9 -1.7898,8.5 -1.78981,8.5 -1.34985,1.59873 -1.34984,1.59873 -0.124,5.40127 -0.124,5.40127 0.97619,4.07706 0.97619,4.07707 0.72492,1.17293 0.72491,1.17294 z"/>

    <!-- Body outline -->
    <path id="human_body" title="Human Body" class="muscle" d="m 61.622749,273.4225 -2.05887,-0.0564 -3.5,-1.19356 -3.5,-1.19356 -0.31933,-2.24827 -0.31932,-2.24827 1.88781,-2.75173 1.88781,-2.75173 2.18152,-5.38335 2.18151,-5.38335 -0.003,-3.11665 -0.003,-3.11665 -1.95317,-10.0595 -1.95318,-10.0595 0.38565,-1.9405 0.38564,-1.9405 1.0662,-6 1.0662,-6 1.50435,-7.70784 1.50431,-7.70784 v -4.97706 -4.97706 l -1.05315,-2.76998 -1.05314,-2.76999 -0.89123,-7.04511 -0.89123,-7.04512 0.98615,-10.47718 0.98614,-10.47718 2.84355,-8.52282 2.84354,-8.52282 0.71988,-14.11018 0.71988,-14.110169 -1.56516,-2.88983 -1.56516,-2.88982 -0.04,1.58052 -0.04,1.58053 -2.49582,4.91947 -2.49581,4.919479 -0.0262,1.5 -0.0261,1.5 -1.87721,4.134 -1.87721,4.134 -3.79819,3.366 -3.79819,3.366 -3.24512,3.45203 -3.24513,3.45202 -2.99762,6.04798 -2.99763,6.04797 -2.17723,7.22494 -2.17723,7.22494 -1.33886,1.11115 -1.33885,1.11115 -0.9305,-0.57508 -0.93049,-0.57508 -1.23576,1.48899 -1.23575,1.48899 h -1.91937 -1.91936 l -2.02068,-1.88255 -2.02068,-1.88255 1.75976,-3.86745 1.75976,-3.86745 0.38606,-0.75 0.38607,-0.75 h -2.58333 -2.58333 v -1.04796 -1.04797 l 2.75,-2.40658 2.75,-2.40657 2.53588,-1.07809 2.53589,-1.07809 3.09783,-5.21737 3.09783,-5.21737 3.72093,-10 3.72093,-10 1.01535,-2 1.01535,-2 2.76518,-3.000004 2.76518,-2.999995 0.65671,-4.62071 0.65671,-4.62071 2.00233,-3.87929 2.00233,-3.87929 -0.57633,-3.17964 -0.57633,-3.17964 1.15434,-4.58432 1.15435,-4.58431 2.9072,-2.44625 2.90721,-2.44626 3.47056,-0.53979 3.47057,-0.53979 3.54422,-0.55361 3.54422,-0.55361 3.08426,-2.75578 3.08425,-2.75578 0.48543,-5.05195 0.48543,-5.05195 -1.52806,-2.38866 -1.52805,-2.38866 8.9e-4,-5.5 8.9e-4,-5.5 1.10571,-4.76328 1.10571,-4.76327 3.64429,-0.98131 3.64429,-0.9813 5.20995,1.54719 5.20995,1.54718 1.9091,3.13927 1.909111,3.13928 -0.017,7.73647 -0.017,7.73648 -1.438801,1.19409 -1.43879,1.19409 v 3.8305 3.83051 l 1.15379,2.53229 1.153791,2.5323 4.16193,2.01475 4.16194,2.01476 h 3.21639 3.2164 l 3.44598,1.43983 3.44599,1.43982 2.01816,3.31018 2.01815,3.31017 0.004,6.28984 0.004,6.28984 1.85939,3.71016 1.85939,3.71016 0.67304,4.37893 0.67305,4.37893 3.26881,3.818869 3.26881,3.81887 4.33251,11.8022 4.33251,11.8022 2.48618,4.67836 2.48618,4.67836 2.63007,1.1171 2.63006,1.1171 2.75,2.40657 2.75,2.40658 v 1.04797 1.04796 h -2.58333 -2.58334 l 0.38607,0.75 0.38606,0.75 1.75977,3.86745 1.75976,3.86745 -2.02068,1.88255 -2.02068,1.88255 h -1.91937 -1.91937 l -1.19556,-1.44056 -1.19556,-1.44056 -1.36739,0.52472 -1.36739,0.52472 -2.42315,-4.83416 -2.42314,-4.83416 -0.6745,-3.71184 -0.67451,-3.71185 -2.53645,-5.78815 -2.53645,-5.78816 -7.82756,-7.55742 -7.82755,-7.55742 -1.20549,-4.44258 -1.2055,-4.44258 -2.39234,-5.014354 -2.39287,-5.014345 v -1.23565 -1.23565 h -0.98095 -0.98095 l -0.69753,2.75 -0.69754,2.75 -0.008,2.999999 -0.008,3 0.79149,10.5 0.79149,10.5 2.35576,8 2.35576,8 1.0321,6.5 1.0321,6.5 -0.008,8.5 -0.008,8.5 -1.44876,6 -1.44876,6 -0.0356,5.61639 -0.0356,5.61638 2.56521,13.38362 2.5652,13.38361 -0.64098,7.83082 -0.64098,7.83081 -1.43636,5.51456 -1.43636,5.51456 2.53848,7.03725 2.53847,7.03725 2.04587,2.87316 2.04587,2.87315 -0.33442,1.73652 -0.33442,1.73651 -2.98779,0.63939 -2.98779,0.63939 -3.71482,0.11832 -3.71481,0.11831 -1.11179,-2.0774 -1.11179,-2.0774 -1.35987,-5.1726 -1.35987,-5.1726 1.09123,-6.5 1.09123,-6.5 -1.59714,-5 -1.59714,-5 -1.98091,-5.5 -1.98091,-5.5 -1.02371,-11 -1.02371,-11 -1.553001,-5.9601 -1.554,-5.9601 v -1.88466 -1.88466 l -1.89108,-6.65524 -1.89108,-6.65524 -1.73933,-11.16232 -1.73934,-11.16232 0.64947,-2.58768 0.64946,-2.58768 h -1.91156 -1.91156 l -0.0824,5.85497 -0.0824,5.85496 -1.55123,9.63998 -1.55123,9.63998 -1.96094,6.25506 -1.96094,6.25505 -0.0129,2.72976 -0.0129,2.72977 -1.41719,3.77023 -1.4172,3.77024 -0.49236,9.57745 -0.49237,9.57746 -3.18518,8.92254 -3.18518,8.92255 -0.49851,4.70158 -0.49851,4.70159 1.04422,4.86902 1.04422,4.86903 -1.98213,6.42939 -1.98213,6.42939 -1.65997,1.25 -1.65997,1.25 z m -0.63704,-3.24913 4.42183,-0.19443 0.85747,-3 0.85748,-3 0.97598,-3.08562 0.97598,-3.08563 -1.01699,-5.36259 -1.017,-5.36259 -0.8241,-0.55179 -0.82411,-0.55178 -1.78444,-7 -1.78443,-7 -0.65859,-11 -0.6586,-11 -1.25054,7 -1.25055,7 2.02939,10.94289 2.02939,10.94289 v 3.24809 3.2481 l -0.97283,0.60124 -0.97282,0.60124 -1.13057,4.19861 -1.13057,4.19861 -1.89661,2.66353 -1.8966,2.66354 v 1.0123 1.01229 l 1.25,0.52777 1.25,0.52776 z m 56.387191,0.29026 4.19098,-0.0153 1.32906,-0.84257 1.32906,-0.84256 -2.58883,-4.89213 -2.58882,-4.89212 -1.66599,-4 -1.66599,-4 0.26638,-4 0.26639,-4 1.39459,-6 1.39459,-6 -0.10354,-7 -0.10353,-7 -0.68569,-3 -0.68569,-3 -0.57443,9 -0.57444,9 -1.7898,8.5 -1.78981,8.5 -1.34985,1.59873 -1.34984,1.59873 -0.124,5.40127 -0.124,5.40127 0.97619,4.07706 0.97619,4.07707 0.72492,1.17293 0.72491,1.17294 z m -50.247071,-39.98469 0.66786,-9.5 1.7515,-5 1.75149,-5 1.97313,-3.88565 1.97312,-3.88565 -1.33952,-0.84904 -1.33953,-0.84903 -1.1666,-0.0153 -1.16659,-0.0153 -1.98782,-2.72883 -1.98781,-2.72883 -2.06232,2.47883 -2.06232,2.47883 -0.002,9.5 -0.002,9.5 0.91598,7.04512 0.91597,7.04511 1.2502,2.95489 1.2502,2.95488 z m 44.937161,8.50055 0.70711,-0.43701 1.337,-7.78177 1.337,-7.78177 0.0599,-11.14014 0.0599,-11.14015 -1.97896,-2.19159 -1.97896,-2.19159 -2.02104,2.48163 -2.02104,2.48163 -2,0.38842 -2,0.38842 0.19636,1.46169 0.19637,1.46168 3.12613,8.5 3.12613,8.5 0.57351,8.71879 0.5735,8.71878 z m -41.859501,-5.50055 1.99833,-4.5 1.33263,-6 1.33263,-6 0.47352,-4.73183 0.47351,-4.73184 -0.81038,0.50084 -0.81038,0.50085 -2.02492,5.41209 -2.02493,5.4121 -1.03981,8.29266 -1.03981,8.29266 0.0706,1.02624 0.0706,1.02623 z m 39.481901,4 h 0.4778 l -0.62102,-6.25 -0.62103,-6.25 -1.94033,-6.5 -1.94034,-6.5 -1.39,-2.46772 -1.39,-2.46771 0.46771,4.96771 0.46771,4.96772 0.89041,4.596 0.89041,4.59601 2.11544,5.65399 2.11543,5.654 z m -33.219841,-39 1.3216,-2.5 0.61931,-2.59817 0.61931,-2.59816 -2.42806,-1.1063 -2.42805,-1.10629 -1.69295,-2.58377 -1.69295,-2.58376 -2.02465,2.17321 -2.02466,2.17321 -1.33529,-1.82611 -1.33528,-1.82612 -0.011,2.44113 -0.011,2.44113 -0.65518,4 -0.65518,4 1.66618,-1.37244 1.66619,-1.37245 v -1.37755 -1.37756 h 1 1 l 0.0222,1.75 0.0222,1.75 1.90937,2.48506 1.90937,2.48506 0.72097,-0.72097 0.72098,-0.72098 -0.0857,-3.01408 -0.0857,-3.01409 h 0.93311 0.93312 l 0.04,4.25 0.04,4.25 z m 26.641411,-2 0.65653,-4.5 0.16551,3 0.1655,3 0.8458,1.3343 0.84581,1.33429 2.13888,-2.71915 2.13889,-2.71916 0.005,-2.11514 0.005,-2.11514 2.56769,3 2.56768,3 -0.559,-2.5 -0.55899,-2.5 -0.0137,-4.4725 -0.0136,-4.47251 -1.66527,2.37751 -1.66528,2.37751 -1.76271,-2.17686 -1.76272,-2.17686 -1.32201,1.85178 -1.32201,1.85177 -2.81831,1.82985 -2.818311,1.82985 0.57629,2.29613 0.576291,2.29612 1.1853,2.79411 1.18529,2.7941 z m -24.705151,-8 h 0.93793 l -0.69694,-7.69096 -0.69693,-7.69097 -0.66572,-1.05903 -0.66571,-1.05904 -0.71765,4 -0.71765,4 -0.0576,3.55 -0.0576,3.55 1.2,1.2 1.2,1.2 z m 21.53962,0 h 0.877561 l 1.23962,-1.49365 1.23962,-1.49365 -0.69564,-6.49583 -0.69565,-6.49583 -0.79391,-0.49066 -0.79391,-0.49067 -0.616621,3.73015 -0.61661,3.73014 -0.011,4.75 -0.011,4.75 z m -32.85037,-4 h 0.83804 l 0.5745,-1.81009 0.5745,-1.81009 -2.51821,-6.19735 -2.51821,-6.19736 -1.04644,-7.5236 -1.04643,-7.52359 0.62492,-1.96896 0.62492,-1.96896 h -0.93146 -0.93146 l -0.63593,4.63957 -0.63592,4.63957 v 4.30816 4.30816 l 3.09457,8.55227 3.09457,8.55227 z m 43.710341,0 h 0.80029 l 2.9811,-7.75 2.98109,-7.75 -0.20311,-8.90311 -0.20311,-8.90311 -1.04689,-1.04689 -1.04689,-1.04689 v 7.3025 7.30249 l -3.03969,9.07288 -3.0397,9.07287 0.50831,1.32463 0.50831,1.32463 z m -37.966021,-1.43817 0.48347,-0.48347 1.36344,-9.17249 1.36344,-9.17248 -1.52996,-6.59706 -1.52996,-6.59706 -1.54102,-5.30092 -1.54102,-5.30092 -2.90175,4.28129 -2.90175,4.28128 -0.0182,5.11351 -0.0182,5.11351 0.95215,5.02068 0.95216,5.02068 3.19186,7.13846 3.19186,7.13846 z m 32.280331,0.43817 h 0.67504 l 2.5264,-5.75 2.52639,-5.75 1.23681,-3.89874 1.23681,-3.89875 0.12336,-8.10125 0.12336,-8.10126 -2.43806,-3.25 -2.43806,-3.25 h -0.68852 -0.68852 l -2.68969,10.73405 -2.6897,10.73405 1.25467,10.26595 1.25467,10.26595 z m -23.468971,-5.65009 1.23231,-4.15009 1.7999,-12.53999 1.7999,-12.53999 -3.85577,-5.59841 -3.85577,-5.5984 -3.8107,-4.21152 -3.81071,-4.21151 -0.19854,3 -0.19855,3 0.0443,1 0.0443,1 2.05056,7.5 2.05057,7.5 1.96155,9 1.96155,9 0.77636,6 0.77635,6 z m 15.36316,0.99272 0.73128,-0.84263 1.22579,-7 1.225791,-7 3.09611,-12 3.09612,-12 0.43802,-5.5 0.43802,-5.5 -2.70862,2.5 -2.70862,2.5 -4.889961,6.46594 -4.88995,6.46594 v 4.23484 4.23484 l 0.91141,4.79922 0.91142,4.79922 1.19596,7.34263 1.19595,7.34263 z m 54.553981,-25.34263 h 0.5 v -0.5 -0.5 h -0.5 -0.5 v 0.5 0.5 z m -124.043811,-2.96364 1.4562,-1.20854 0.99713,0.61627 0.99714,0.61626 1.05506,-4.28017 1.05506,-4.28018 0.95633,-3.44004 0.95634,-3.44004 -1.08717,-1.30996 -1.08717,-1.30996 h -1.21704 -1.21704 l -1.1224,2.46339 -1.1224,2.4634 -3.95405,2.49608 -3.95406,2.49609 -0.58544,0.94726 -0.58544,0.94726 2.14756,-0.5616 2.14756,-0.5616 -0.5033,2.63283 -0.50329,2.63282 1.85711,0.58942 1.85712,0.58943 v 1.05505 1.05506 z m 124.179001,-0.52869 1.50767,-1.50767 h 0.92857 0.92857 v -2.60699 -2.60699 l 1.55194,0.59554 1.55194,0.59553 -0.636,-1.02906 -0.636,-1.02907 -3.95406,-2.49609 -3.95406,-2.49608 -1.12239,-2.4634 -1.1224,-2.46339 -0.58949,0.0318 -0.58948,0.0318 -1.70859,1.29815 -1.70858,1.29816 0.95019,3.42004 0.9502,3.42004 1.03567,4.20815 1.03566,4.20815 1.37157,-0.52632 1.37158,-0.52633 0.66491,1.07585 0.66491,1.07584 z m -89.261151,-3.10231 1.12596,-0.43668 2.44295,-3.57781 2.44295,-3.57782 0.41801,-5.77893 0.41801,-5.77893 -1.02705,-0.63475 -1.02705,-0.63475 -2.05164,6.25715 -2.05165,6.25716 -0.90822,4.17102 -0.90822,4.17101 z m 53.309011,-0.40536 h 0.47586 l -0.6595,-3.25 -0.6595,-3.25 -2.09996,-6.69776 -2.09997,-6.69777 -0.81999,0.50678 -0.81999,0.50679 v 5.90618 5.90619 l 3.10359,3.5348 3.10359,3.53479 z m -29.708141,-3 h 0.73003 l 0.65531,-8.52527 0.6553,-8.52527 -0.63558,-3.97473 -0.63559,-3.97473 h -2.7904 -2.79041 l -1.73914,-0.66737 -1.73914,-0.66737 0.67647,5.75564 0.67646,5.75565 2.07184,6.16173 2.07183,6.16172 1.0315,1.25 1.0315,1.25 z m 5.18911,0 h 0.90705 l 1.92356,-4.48748 1.92356,-4.48748 1.54986,-8.17022 1.54987,-8.17023 -0.35803,-0.35803 -0.35802,-0.35802 -3.90094,0.80935 -3.90093,0.80936 -0.57935,4.29759 -0.57935,4.29758 0.45784,7.90879 0.45783,7.90879 z m 12.300401,-13.28049 6.79324,-6.72672 -0.34563,-6.74639 -0.34563,-6.7464 -0.0332,-7.58211 -0.0332,-7.582109 1.89624,-3.51717 1.89623,-3.51717 -0.68811,-2.74164 -0.6881,-2.74164 -1.70813,0.73871 -1.70813,0.73871 -3.16438,1.0701 -3.16438,1.0701 -0.46783,15.032109 -0.46784,15.03211 -1.513151,7.5 -1.51315,7.5 -0.76904,2.97311 -0.76904,2.97311 z m -24.607431,4.14271 0.35699,0.13778 -0.55167,-1.43762 -0.55167,-1.43762 -2.14332,-12.08013 -2.14333,-12.08013 0.338,-10.900269 0.33801,-10.90027 -3.5,-1.14696 -3.5,-1.14695 -1.36669,-0.55726 -1.3667,-0.55725 0.50209,3.87223 0.50209,3.87223 1.79627,4.58189 1.79627,4.58189 -1.35993,11.806689 -1.35993,11.80669 5.92826,5.72364 5.92827,5.72363 z m -41.75283,-1.4266 0.89584,-0.55365 v -1.52608 -1.52608 l 7.83121,-7.66491 7.83121,-7.6649 1.27857,-2.38939 1.27857,-2.38938 0.82041,-2.86062 0.82042,-2.86061 h -0.46232 -0.46231 l -3.59001,1.5 -3.59,1.5 h -0.75288 -0.75287 l -0.63008,-3.15039 -0.63008,-3.15039 -2.08754,1.8892 -2.08755,1.8892 -1.08066,2.01119 -1.08065,2.01119 -4.23215,11 -4.23216,11 2.0096,1.74464 2.0096,1.74464 z m 106.019651,-0.74501 1.87619,-1.1717 v -0.76428 -0.76427 l -4.11036,-11.24518 -4.11036,-11.24518 -2.44053,-3.25 -2.44053,-3.25 h -0.94911 -0.94911 v 2.44098 2.44099 l -0.95598,0.59083 -0.95598,0.59083 -3.69756,-1.54494 -3.69756,-1.54494 -0.34354,0.34354 -0.34355,0.34355 1.58262,4.64474 1.58263,4.64474 5.89768,5.10925 5.89768,5.10925 3.14058,4.84674 3.14059,4.84675 z m -57.480801,-14.79396 1.14301,0.10335 0.60699,-1.58179 0.60699,-1.58178 v -2.73082 -2.73082 l -5.99423,0.0626 -5.99422,0.0626 0.008,1 0.008,1 0.58297,2.17351 0.58298,2.17352 3.65337,0.97313 3.65337,0.97314 z m 7.72819,-0.46213 3.1288,-0.67114 1.75,-0.91687 1.750001,-0.91688 v -1.38302 -1.38303 l 0.51149,-1.33294 0.5115,-1.33294 -5.585461,0.15845 -5.58546,0.15844 -0.49052,0.49052 -0.49052,0.49052 0.68569,3.65502 0.68568,3.65502 z m -12.28632,-9.43452 h 3.75154 l 1.58179,-0.60699 1.58179,-0.60699 v -4.36633 -4.366329 l -5.99801,0.22332 -5.99801,0.22332 -0.002,4.083329 -0.002,4.08334 0.66667,0.66666 0.66666,0.66667 z m 13,0 h 3.75154 l 1.58179,-0.60699 1.581791,-0.60699 -0.003,-4.14301 -0.003,-4.143009 -5.997431,-0.17393 -5.99737,-0.17393 v 4.257269 4.25726 l 0.66666,0.66666 0.66667,0.66667 z m -44.66779,-3 h 0.4171 l 4.63289,-1.98589 4.6329,-1.98589 1.84152,-4.264109 1.84151,-4.26411 0.67182,-5.68092 0.67182,-5.68093 -2.07384,-1.10988 -2.07383,-1.10989 -4.38283,3.01547 -4.38283,3.01547 -1.10666,3.17456 -1.10666,3.17457 v 6.85078 6.850769 z m 78.955761,-0.77448 0.87284,-0.4954 -0.45807,-7.115059 -0.45807,-7.11506 -1.41478,-2.68022 -1.41477,-2.68021 -3.96004,-2.68218 -3.96003,-2.68218 -1.53997,0.96367 -1.53996,0.96368 -0.30485,3.55615 -0.30484,3.55615 1.58999,5.46939 1.59,5.4694 1.71485,1.531425 1.71485,1.531444 3.5,1.45219 3.5,1.4522 z m -45.872851,-7.896159 4,-0.55784 0.39468,-0.36377 0.39468,-0.36377 0.49733,-5.17588 0.49734,-5.17587 -3.89202,0.64288 -3.89201,0.64288 -2.25,0.011 -2.25,0.011 v 4.91667 4.91667 l 1.25,0.52692 1.25,0.52693 z m 14,0.51915 2,0.12087 1.38012,-0.87413 1.380121,-0.87412 -0.66278,-4.41978 -0.662791,-4.41977 -5.00999,-1.02628 -5.00999,-1.02629 -0.54484,0.88158 -0.54485,0.88158 0.67332,4.89561 0.67332,4.89561 2.16418,0.42212 2.16418,0.42213 z m -18.68426,-12.88765 5.31574,0.0391 1.93426,-1.03518 1.93426,-1.03519 -0.011,-2.71481 -0.011,-2.71482 -0.6289,-3.80581 -0.62889,-3.80582 -3.36838,-2.56918 -3.36837,-2.56919 h -2.54422 -2.54422 l -2.46667,2.31732 -2.46667,2.31732 -3.11283,4.85092 -3.11283,4.85092 1.88199,1.5086 1.882,1.50859 3,1.40902 3,1.40903 z m 21.9741,0.009 5.289841,0.0304 4.00888,-2.04518 4.00888,-2.04518 0.56356,-1.46861 0.56356,-1.46861 -3.83715,-5.57137 -3.83716,-5.57138 -1.70938,-0.91483 -1.70939,-0.91484 h -2.53094 -2.530951 l -3.5348,3.10362 -3.53479,3.1036 v 5.84671 5.84672 l 1.75,1.01928 1.75,1.01928 z m -44.85234,-4.27604 0.5625,-0.34815 3.07414,-1.32554 3.07413,-1.32554 3.85147,-5.94834 3.85147,-5.94834 1.8244,-1.13935 1.82439,-1.13935 v -0.75945 -0.75946 h -5.03212 -5.03212 l -3.50387,1.46401 -3.50387,1.46401 -1.46401,3.50387 -1.46401,3.50387 v 3.86546 3.86545 l 0.6875,0.6875 0.6875,0.6875 z m 68.205511,0.24909 0.64301,0.0574 0.60699,-1.58179 0.60699,-1.58178 v -2.45033 -2.45034 l -1.43982,-3.44598 -1.43983,-3.44599 -3.31017,-2.01815 -3.31018,-2.01816 -6,0.0322 -6,0.0322 2.60844,2.21404 2.60843,2.21403 3.52461,5.31299 3.52461,5.31299 3.36696,1.87962 3.36695,1.87961 z m -34.143011,-3.94261 0.80064,-2.5 0.0997,-2.57568 0.0997,-2.57569 2.25714,-2.12047 2.25714,-2.12048 3.49286,-1.5147 3.492861,-1.51469 -1.12428,-0.0392 -1.124271,-0.0391 -4.12573,1.45564 -4.12572,1.45564 v -1.5053 -1.5053 l 1.38967,-2.70034 1.38968,-2.70034 0.99402,-3.6207 0.99401,-3.62071 -3.38369,1.03849 -3.38369,1.03848 -3.5,-1.07418 -3.5,-1.07418 v 0.38357 0.38357 l 2.5,6.64189 2.5,6.64189 v 0.98793 0.98793 l -1.75,-0.72044 -1.75,-0.72045 -2,-0.49682 -2,-0.49683 3.62398,2.56071 3.62399,2.5607 0.62601,1.63136 0.62602,1.63137 0.0997,4.16821 0.0997,4.16821 z m -11,-14 h 1.33333 l -0.66667,-0.66666 -0.66666,-0.66667 -0.66667,0.66667 -0.66667,0.66666 z m 6.23382,-1.12009 0.73382,0.12009 -1.70417,-3.75 -1.70416,-3.75 -0.15786,-0.29487 -0.15786,-0.29487 -2.94094,2.94094 -2.94095,2.94094 4.06915,0.98384 4.06915,0.98384 z m 10.19516,-0.21428 1.42899,-0.54836 3.40424,-0.63864 3.404231,-0.63863 -3.083221,-3.17 -3.08322,-3.17 -1.75,3.85921 -1.75,3.8592 v 0.49778 0.49779 z m -5.42898,-12.72784 3.5,-0.001 1.56841,-1.2182 1.5684,-1.21819 2.38993,-4.81223 2.389921,-4.81223 -1.116551,-0.69006 -1.11655,-0.69007 -0.6791,-3.99771 -0.6791,-3.9977 -0.48651,-1.77029 -0.4865,-1.77029 -6.67618,0.63659 -6.67617,0.63659 -1.22847,1.54539 -1.22847,1.54538 0.60621,2.41536 0.60622,2.41536 -1.22385,2.28678 -1.22384,2.28677 1.5961,3.08652 1.5961,3.08652 v 1.49997 1.49997 l 1.75,1.01928 1.75,1.01928 z m 9.66666,-22.27112 0.66667,-0.66667 -0.66667,-0.66666 -0.66666,-0.66667 v 1.33333 1.33334 z m -18.01759,-2.17289 1.64908,-1.64907 1.77177,0.46333 1.77177,0.46333 4.72929,-0.88353 4.72929,-0.88353 1.59986,1.12262 1.59987,1.12262 -2.80577,-2.62477 -2.80576,-2.62478 -2.19424,-0.11069 -2.19423,-0.11069 -2.5,0.16539 -2.5,0.1654 -2.25,2.50106 -2.25,2.50106 v 1.01566 1.01567 z M 60,-0" />

  </g>
</svg> 