<?xml version="1.0"  encoding="UTF-8"?>
<svg xmlns="http://www.w3.org/2000/svg"  viewBox="0 0 175 280">

    <g id="human_body_back">

    <!-- Head -->
    <path id="back_head" title="Head" class="muscle" d="m86.43,45.27l3.17,0.03l1.62,-0.62l1.63,-0.62l1.95,-3.84l1.96,-3.84l0,-4.49l0,-4.49l-1.19,-2.63l-1.2,-2.62l-2.75,-1.42l-2.76,-1.43l-2.1,0l-2.1,0l-2.75,1.43l-2.76,1.42l-1.19,2.62l-1.2,2.63l0,5.23l0,5.23l1.71,2.47l1.7,2.47l1.55,1.22l1.54,1.22l3.17,0.03z" />

    <!-- Trapezius -->
    <path id="posterior_trapezius" title="Trapezius" class="muscle" d="m81.82,88.06l-4.67,-9.43l-0.48,-6.61l-0.49,-6.6l-2,-3.4c-1.11,-1.87 -1.94,-3.48 -1.84,-3.57c0.09,-0.09 3.42,-1.1 7.4,-2.24l7.23,-2.07l7.32,2.08c4.03,1.14 7.39,2.13 7.46,2.21c0.08,0.08 -0.76,1.87 -1.87,3.98l-2.01,3.85l-0.97,7.63l-0.97,7.63l-4.2,7.9c-2.91,5.46 -4.37,7.93 -4.73,7.99c-0.42,0.06 -1.41,-1.72 -5.18,-9.35z" />
    <path id="posterior_right_trapezius" title="Right Trapezius" class="muscle" d="m92.3,54.82l-4.24,-1.32l0,-2.67l0,-2.67l1.08,-0.29c2.32,-0.63 2.09,-0.79 5.22,3.79c1.6,2.34 2.91,4.31 2.91,4.39c0,0.27 -0.75,0.08 -4.97,-1.23z" />
    <path id="posterior_left_trapezius" title="Left Trapezius" class="muscle" d="m75.85,55.86c0.31,-0.39 1.97,-2.35 3.69,-4.36l3.13,-3.65l1.55,0l1.54,0l0,2.86l0,2.87l-1.08,0.29c-1.73,0.47 -8.21,2.32 -8.83,2.52c-0.56,0.18 -0.56,0.18 0,-0.53z" />
    
    <!-- Back deltoids -->
    <path id="posterior_left_back_deltoids" title="Left Back Deltoids" class="muscle" d="m48.94,77.42c0,-0.14 0.26,-2.13 0.58,-4.42c0.54,-3.93 0.65,-4.3 2.06,-7.03l1.49,-2.87l3.76,-1.77l3.76,-1.77l4.59,-0.46c2.52,-0.25 4.64,-0.39 4.71,-0.32c0.06,0.07 -0.06,0.87 -0.27,1.78l-0.4,1.66l-4.45,2.82c-2.44,1.54 -4.56,2.92 -4.69,3.06c-0.14,0.14 -0.53,1.39 -0.88,2.79l-0.62,2.55l-4.46,1.97c-2.45,1.08 -4.62,2.03 -4.82,2.12c-0.2,0.09 -0.36,0.04 -0.36,-0.11z"/>
    <path id="posterior_right_back_deltoids" title="Right Back Deltoids" class="muscle" d="m120.73,75.31c-2.46,-1.35 -3.4,-1.71 -4.38,-1.71l-1.25,0l0,-2.55l0,-2.54l-2.93,-1.53c-2.04,-1.06 -3.71,-2.23 -5.47,-3.8c-2.25,-2.02 -2.53,-2.38 -2.53,-3.26l0,-0.99l4.24,0.01l4.24,0.01l4.3,2.22l4.29,2.22l1.84,4.17l1.84,4.17l-0.24,2.56c-0.13,1.41 -0.36,2.61 -0.52,2.65c-0.16,0.05 -1.7,-0.69 -3.43,-1.63z" />
    
    <!-- Triceps -->
    <path id="posterior_left_triceps" title="Left Triceps" class="muscle" d="m49.66,103.01c0.65,-1.53 1.58,-7.69 1.58,-10.42l0,-0.87l-2.09,0l-2.09,0l-0.65,2.51c-0.47,1.83 -0.64,3.33 -0.64,5.44c0.01,2.78 -0.02,2.93 -0.7,3.38c-0.39,0.25 -0.78,0.46 -0.86,0.46c-0.09,0 -0.16,-1.61 -0.16,-3.58l0,-3.58l2.01,-5.8c1.15,-3.34 2.65,-7.03 3.54,-8.71l1.55,-2.92l2.85,-1.5c1.57,-0.83 3.24,-1.51 3.72,-1.51l0.86,-0.01l1.19,5.17l1.2,5.17l-1.45,4.68c-1.28,4.18 -1.72,5.16 -4.07,9.2l-2.62,4.53l-1.94,0l-1.93,0.01l0.7,-1.65z" />
    <path id="posterior_right_triceps" title="Right Triceps" class="muscle" d="m119.52,101.12l-2.63,-3.51l-1.77,-5.68l-1.77,-5.68l0.88,-4.53c0.48,-2.49 0.94,-4.82 1.02,-5.18c0.24,-1.03 1.41,-0.82 4.69,0.86l2.97,1.52l2.46,4.89c2.23,4.41 2.6,5.39 3.81,10.06l1.34,5.18l-0.45,2.22l-0.45,2.21l-0.76,-0.47c-0.76,-0.46 -0.77,-0.51 -0.89,-4.37c-0.08,-2.58 -0.29,-4.42 -0.61,-5.41l-0.49,-1.51l-2.15,0c-1.18,0 -2.14,0.04 -2.14,0.09c0,1.5 1.33,9.97 1.73,11.06c0.31,0.84 0.57,1.58 0.57,1.66c0,0.07 -0.62,0.12 -1.37,0.12l-1.36,-0.02l-2.63,-3.51z" />
    
    <!-- Forearm -->  
    <path id="posterior_left_forearm" title="Left Forearm" class="muscle" d="m29.49,141.04c-1.02,-0.23 -1.92,-0.5 -2.01,-0.6c-0.09,-0.09 0.15,-0.98 0.55,-1.98c0.39,-1 1.89,-5.71 3.34,-10.47c1.81,-5.97 3.5,-10.4 5.45,-14.27c2.91,-5.82 4.97,-9.25 5.55,-9.25c0.18,0 0.57,0.54 0.88,1.21c0.42,0.92 0.83,1.17 1.79,1.05c1,-0.11 1.37,-0.52 1.83,-2.02l0.58,-1.88l0.04,1.99c0.05,1.96 0.08,2 1.7,2c1.59,0 1.64,0.05 1.64,1.82c0,2.86 -1.92,6.54 -8.62,16.48c-4.43,6.59 -6.59,10.27 -7.53,12.84c-1.44,3.95 -1.46,3.96 -5.19,3.08z"/>
    <path id="posterior_right_forearm" title="Right Forearm" class="muscle" d="m138.76,136.76c-1,-2.13 -4.22,-7.47 -7.16,-11.86c-5.34,-7.99 -8.45,-14.13 -8.45,-16.71c0,-1.25 0.14,-1.37 1.65,-1.37c1,0 1.64,-0.23 1.63,-0.59c-0.01,-0.74 -1.29,-8.62 -1.68,-10.33c-0.18,-0.77 -0.1,-1.29 0.19,-1.29c0.67,0 0.86,0.82 1.52,6.47c0.46,4 0.73,4.94 1.55,5.52c1.37,0.96 1.5,0.91 2.69,-1l1.04,-1.69l1.85,2.91c2.51,3.94 7.45,15.96 10.27,24.94c1.27,4.04 2.3,7.46 2.3,7.6c0,0.41 -2.88,1.27 -4.27,1.27c-1.19,0 -1.49,-0.37 -3.13,-3.87z"/>

    <!-- Hands -->
    <path id="back_left_hand" title="Left Hand" class="muscle" d="m24.37,156.59l1.5,-2.29l0.01,2.35l-1.41,7.52c0.13,0.69 0.19,2.11 1.58,0.71l3.48,-10.62l1.97,-2.8l1.45,2.19l1.53,3.77l2,3.38l0.5,-0.76l0.03,-2.06l-0.97,-2.7l-0.9,-3.16l-1.12,-3.07l-0.02,-1.68l-1.57,-1.57l-1.57,-1.57l-3.24,0l-3.24,0l-2.17,2.93l-4.67,4.48l-2.51,3.03c0.25,0.79 0.43,0.85 1.35,0.2l1.89,-1.7l3.7,-2.81l-0.74,2.14l-0.86,0.96l-4.44,5.18c0.03,0.36 0.51,0.79 1.07,0.69l2.2,-1.85l2.07,-2.27l1.81,-1.55l-0.58,2.03l-2.63,6.35c-0.11,1 -0.21,1.94 1.07,2.62l1.36,-3.3l2.05,-4.78z"/>
    <path id="back_right_hand" title="Right Hand" class="muscle" d="m152.19,158.05zm3.93,-1.23l0.94,-0.14l-2.13,-3.28l-3.15,-3.94l1.57,0.74l3.1,2.99l0.96,0.2l1.38,-0.22l-2.36,-2.65l-2.23,-2.4l-3.04,-3.47l-3.05,-3.47l-3.2,1.07l-3.21,1.07l-0.62,0.62l-0.62,0.61l-0.63,4.5l-2.78,6.26c-0.13,0.7 0.03,0.66 0.04,0.99c0.34,-0.06 0.59,-0.3 1.03,-0.17l1.56,-2.24c0.51,-0.89 1.01,-1.78 1.52,-2.66l1.37,-1.17c0.36,0.17 0.72,0.34 1.08,0.51l1.81,2.74l2.22,8.76c0.17,-0.41 0.34,-0.81 0.5,-1.22l0.14,-3l-1.13,-4.79l0.64,0l0.64,0l1.38,1.75c0.71,2.22 1.89,4.26 2.83,6.38l0.17,-1.46l0.08,-1.46l-1.1,-3.82l-1.73,-3.9l2.8,3.25l2.2,2.4l1.03,0.62z"/>

    <!-- Upper back -->
    <path id="posterior_right_upper_back1" title="Right Upper back" class="muscle" d="m99.17,117.86c-0.84,-1.85 -1.11,-2.95 -1.57,-6.25c-0.39,-2.81 -0.84,-4.82 -1.54,-6.77l-0.99,-2.77l-2.91,-1.74c-1.6,-0.95 -2.94,-1.75 -2.97,-1.78c-0.08,-0.05 8.51,-16.07 9.14,-17.07c0.38,-0.6 0.39,-0.6 4.99,1.46l4.61,2.06l1.9,-0.57c1.04,-0.31 1.95,-0.52 2.01,-0.45c0.15,0.15 -2.36,18.19 -2.67,19.14c-0.13,0.4 -1.83,2.94 -3.79,5.65l-3.56,4.94l-0.65,3.2c-0.35,1.76 -0.72,3.2 -0.82,3.2c-0.09,0 -0.63,-1.02 -1.18,-2.25z" />
    <path  id="posterior_right_upper_back2" title="Top Right Upper Back" class="muscle" d="m102.44,80.56c-4.02,-1.85 -4.13,-1.92 -4.2,-2.8c-0.04,-0.5 0.41,-3.53 1.01,-6.73c0.93,-4.96 1.23,-6.08 2.01,-7.47l0.92,-1.63l5.48,4.39c3.02,2.42 5.66,4.56 5.86,4.77c0.33,0.32 0.29,0.98 -0.23,4.44l-0.62,4.07l-1.4,1.45c-1.39,1.43 -1.42,1.44 -3.06,1.43c-1.46,-0.01 -2.15,-0.25 -5.77,-1.92z"/>
    <path id="posterior_left_upper_back1" title="Left Upper Back" class="muscle" d="m73.38,120.45c-0.07,-0.11 -0.34,-1.69 -0.61,-3.5l-0.48,-3.3l-3.72,-5.04l-3.72,-5.05l-1.16,-9.64c-0.63,-5.31 -1.11,-9.69 -1.05,-9.75c0.05,-0.06 1.18,0.1 2.51,0.36l2.41,0.47l3.77,-1.96c2.08,-1.08 3.89,-1.89 4.03,-1.81c0.14,0.09 1.3,2.11 2.59,4.49c1.28,2.37 3.32,6.14 4.53,8.37l2.2,4.05l-3.96,3.64l-3.95,3.64l-0.01,4.29l0,4.28l-1.4,3.33c-1.3,3.09 -1.67,3.67 -1.98,3.13z" />
    <path  id="posterior_left_upper_back2" title="Top Left Upper Back" class="muscle" d="m62.77,80.81l-1.47,-1.68l-0.25,-2.92c-0.14,-1.61 -0.17,-3.7 -0.07,-4.65l0.18,-1.72l2.94,-1.48c2.69,-1.35 3.15,-1.7 5.23,-3.97c1.25,-1.37 2.37,-2.5 2.48,-2.5c0.12,0 0.83,1.52 1.59,3.37l1.38,3.36l0.2,5.09l0.2,5.1l-4.08,1.84c-3.3,1.49 -4.35,1.84 -5.47,1.84c-1.34,0 -1.41,-0.04 -2.86,-1.68z"/>
    
    <!-- Lower back -->
    <path id="posterior_lower_back" title="Lower Back" class="muscle" d="m84.73,128.92l-1.78,-2.41l-3.85,-1.73c-2.12,-0.95 -3.89,-1.76 -3.93,-1.8c-0.05,-0.04 0.6,-1.44 1.44,-3.12l1.52,-3.04l0,-3.99l0,-3.99l1.21,-2.59l1.21,-2.59l3.54,-1.77l3.54,-1.77l3.05,1.91l3.05,1.9l1.13,3.29c1.05,3.07 1.12,3.48 1.12,6.34l0,3.06l1.39,2.58c1,1.86 1.37,2.82 1.31,3.44c-0.09,0.85 -0.15,0.88 -2.5,1.47c-2.57,0.64 -2.57,0.65 -8.71,6.32l-0.96,0.89l-1.78,-2.4z" />
    
    <!-- Side back -->
    <path id="back_right_lower_back1" title="Right Lower Back 1" class="muscle" d="m106.89,110.06l0.42,-0.08l0.41,14.08l-2.34,-0.29l-3.69,-0.99l1.23,-7.22l3.97,-5.5zl0,0zl0,0zl0,0z"/>
    <path id="back_right_lower_back2" title="Right Lower Back 2" class="muscle" d="m101.75,125.04l3.58,0.04l2.55,1.52l3.98,13.75l-0.78,0.86l-2.18,-5.38l-0.04,-2.63l-7.11,-8.17zl0,0z"/>
    <path id="back_left_lower_back1" title="Left Lower Back 1" class="muscle" d="m61.7,141.58l1.09,-3.06l3.55,-11.64l1.97,-1.52l3.78,0.08l-6.81,7.51l-1.4,7.43l-2.18,1.19zl0,0zl0,0zl0,0z"/>
    <path id="back_left_lower_back2" title="Left Lower Back 2" class="muscle" d="m66.8,110.96l3.8,4.72l0.77,7.53l-1.44,0.07c0,0 -3.14,1.2 -3.14,1.2c0,0 0,-13.51 0,-13.51zl0,0z"/>
    
    <!-- Gluteal -->
    <path id="posterior_left_gluteal" title="Left Gluteal" class="muscle" d="m68.85,156.99l-3.06,-1.56l-1.13,-2.53c-1.03,-2.33 -1.13,-2.74 -1.13,-4.86c0,-2.19 0.11,-2.63 2.17,-8.39c2.37,-6.65 2.15,-6.28 6.5,-10.83l2.83,-2.95l1.32,0.01c1.11,0.01 1.76,0.27 4.03,1.61c2.7,1.6 2.7,1.6 4.32,4.32l1.62,2.71l0,8.15l0,8.14l-1.26,3.59c-0.83,2.33 -1.43,3.62 -1.72,3.71c-0.25,0.06 -2.92,0.19 -5.94,0.28l-5.49,0.15l-3.06,-1.55z"/>
    <path id="posterior_right_gluteal" title="Right Gluteal" class="muscle" d="m90.91,158.2c-0.05,-0.18 -0.25,-0.83 -0.44,-1.44c-0.18,-0.6 -0.81,-2.3 -1.39,-3.78l-1.06,-2.68l0,-7.75l0.01,-7.75l1.45,-2.73l1.45,-2.72l3.81,-2.16l3.82,-2.16l3.64,3.62l3.63,3.63l2.18,5.65c1.83,4.74 2.25,6.15 2.62,8.72l0.44,3.07l-1.16,2.84l-1.16,2.83l-3.16,1.56l-3.16,1.56l-5.7,0.02c-4.34,0.01 -5.73,-0.06 -5.82,-0.33z"/>
    
    <!-- Adductor -->
    <path id="posterior_right_adductor" title="Right Adductor" class="muscle" d="m75.47,166.12zm20.15,17.23l0.37,-0.36l1.42,-9.36l1.42,-9.36l0.02,-1.15l0.02,-1.15l-4.5,-0.36l-4.5,-0.35l-0.02,3l-0.01,3.01l2.71,8.22l2.71,8.22l0.36,-0.36z"/>
    <path  id="posterior_left_adductor" title="Left Adductor" class="muscle" d="m80.53,177.77l2.52,-6.5l0.53,-5.02l0.52,-5.01l-4.61,0.36l-4.61,0.37l0.59,4.15l0.59,4.15l0.9,6l0.9,6l0.07,1l0.08,1l2.52,-6.5z"/>
    
    <!-- Hamstring -->
    <path id="posterior_left_hamstring" title="Left Hamstring" class="muscle" d="m68.15,203.79l-2.11,-4.47l0.01,-3.05c0,-3.04 0.01,-3.06 1.41,-6.45c1.41,-3.39 1.42,-3.42 2.2,-9.99c0.77,-6.5 0.8,-6.66 2.39,-11.12c1.86,-5.2 1.65,-5.35 2.38,1.78c0.23,2.27 0.91,7.03 1.52,10.59l1.09,6.47l-1.2,5.75c-1.1,5.3 -1.34,6.11 -3.19,10.35c-1.1,2.53 -2.09,4.6 -2.19,4.6c-0.11,0 -1.14,-2.01 -2.31,-4.46z" />
    <path id="posterior_right_hamstring" title="Right Hamstring" class="muscle" d="m101.83,204.2c-1.32,-2.82 -1.95,-4.68 -3.22,-9.54l-1.58,-6.05l1.73,-11.19c1.67,-10.83 1.74,-11.18 2.22,-10.7c0.89,0.89 2.66,7.95 3.39,13.53c0.6,4.64 0.79,5.47 2.04,8.76l1.38,3.65l0,3.74l0.01,3.75l-1.72,3.77c-1.16,2.55 -1.86,3.77 -2.16,3.78c-0.29,0 -0.98,-1.16 -2.09,-3.5z"/>
    <path id="posterior_right_side_hamstring" title="Right Side Hamstring" class="muscle" d="m65.68,190.02zm49.07,7.33l0.88,0l-1.02,-2.7l-1.03,-2.69l0.7,-18.14l0.69,-18.14l-0.78,-3.91l-0.79,-3.92l-0.94,3.5l-0.94,3.5l-2.05,2.2l-2.04,2.19l-2.87,0.63l-2.88,0.64l0,1.29l0,1.3l1.41,4l1.42,4.01l1.18,7.81l1.19,7.81l0.8,2.11l0.8,2.12l2.69,3.19l2.69,3.2l0.89,0z"/>
    <path id="posterior_left_side_hamstring" title="Left Side Hamstring" class="muscle" d="m62.43,193.77l3.25,-3.75l0.99,-3.59l1,-3.58l0.01,-3.16l0,-3.16l1.99,-6.34l1.99,-6.34l0.01,-1.24l0.01,-1.24l-3.33,-1.39l-3.33,-1.39l-2.17,-2.76l-2.17,-2.75l-0.06,-2.62l-0.06,-2.61l-0.98,2.44l-0.98,2.44l0.29,22.4l0.29,22.39l3.25,-3.75z" />
    
    <!-- Calves -->
    <path id="posterior_left1_calves" title="Left Calves" class="muscle" d="m51.07,233.05c0,-0.31 0.29,-3.3 0.64,-6.64l0.64,-6.06l2.86,-7.16l2.85,-7.15l0,-3.05l0,-3.04l1.04,-0.64l1.04,-0.65l1.11,1.13l1.12,1.13l-0.14,3.78l-0.14,3.77l-2.42,9.36c-2.32,8.95 -2.48,9.46 -3.61,11.57l-1.17,2.21l-1.91,1.01l-1.91,1l0,-0.57z"/>
    <path id="posterior_left2_calves" title="Left Calves" class="muscle" d="m62.22,232.7c-2.46,-2.67 -2.93,-3.36 -2.93,-4.31c0.01,-2.73 5.35,-22.8 6.39,-24c0.11,-0.14 0.85,0.95 1.64,2.4l1.43,2.65l-0.74,11.28l-0.74,11.27l-1.06,1.95l-1.07,1.94l-2.92,-3.18z"/>
    <path id="posterior_right1_calves" title="Right Calves" class="muscle" d="m107.48,233.46c-0.53,-0.95 -0.74,-2.87 -1.33,-12.14l-0.7,-11.02l1.36,-3.28l1.36,-3.27l1.39,3.82c0.77,2.1 2.31,7.75 3.43,12.57l2.05,8.75l-1.91,2.56c-1.06,1.42 -1.94,2.61 -1.98,2.65c-0.03,0.05 -0.73,0.18 -1.55,0.28c-1.42,0.19 -1.52,0.14 -2.12,-0.92z"/>
    <path id="posterior_right2_calves" title="Right Calves" class="muscle" d="m118.04,229.2c-1.79,-3.09 -1.93,-3.51 -2.46,-7.17c-0.31,-2.23 -1.43,-6.94 -2.62,-11.04l-2.07,-7.15l1.09,-2.64c0.61,-1.46 1.2,-2.76 1.32,-2.88c0.12,-0.13 0.71,0.21 1.31,0.75c1.07,0.96 1.1,1.06 1.1,3.78c0,2.71 0.09,3.01 2.88,10.06l2.88,7.26l0.5,5.07c0.27,2.78 0.5,5.56 0.5,6.16c0,1.05 -0.06,1.1 -1.27,1.09c-1.25,0 -1.3,-0.06 -3.16,-3.29z"/>
    
    <!-- Foot -->
    <path id="back_right_foot" title="Right Foot" class="muscle" d="m120.64,275.24l1.62,0.03l1,-1.25l0.99,-1.25l-0.3,-12.91l-0.3,-12.91l-0.69,-5.09l-0.68,-5.09l-3.14,-2.65l-3.13,-2.66l-3.34,3.63l-3.33,3.62l1.61,2.72l1.61,2.73l2.47,6.58l2.48,6.58l0,3.1l0,3.09l-1.34,-1.11l-1.35,-1.11l-0.65,0.66l-0.66,0.65l0,2.28l0,2.27l1,0.62l1,0.62l0,2.39l0,2.39l1.75,1.02l1.75,1.02l1.63,0.03z" />
    <path id="back_left_foot" title="Left Foot" class="muscle" d="m53.53,275.27l2.18,0l1.2,-1.2l1.2,-1.2l0,-2.24l0,-2.24l1,-0.62l1,-0.62l0,-2.38l0,-2.38l-1.11,-0.69l-1.12,-0.69l-0.96,1.38l-0.97,1.38l0.64,-5.5l0.64,-5.5l3.55,-7l3.55,-7.01l-3.36,-3.66l-3.36,-3.67l-3.43,3.06l-3.42,3.06l-0.91,17.41l-0.91,17.4l1.21,1.46l1.2,1.45l2.18,0z"/>
    
    <!-- Body outline -->
    <path id="human_body" title="Human Body"  class="muscle" d="m52.96,277.2l-2.69,0l-1.32,-1.6l-1.33,-1.6l0.23,-11.15l0.23,-11.15l1.06,-14.92l1.05,-14.91l2.43,-6.73l2.42,-6.73l0.57,-4.82l0.57,-4.82l0.67,-1.04l0.68,-1.03l0.05,-24.5l0.05,-24.5l3.26,-9.5l3.25,-9.5l0.53,-8.5l0.54,-8.5l-1.59,-5.96l-1.59,-5.96l-0.05,-3.54l-0.04,-3.54l-2.57,5l-2.57,5l-1.3,1.5l-1.3,1.5l-2.13,6.34l-2.12,6.34l-5.48,7.81l-5.47,7.81l-2.11,5.08l-2.11,5.08l1.17,5.29l1.62,7.26l0.26,1.18c-0.22,2.45 -0.09,2.54 -1.15,3.15c-0.88,-0.55 -1.76,-1.23 -2.24,-1.97l-1.33,-3.03l-1.79,-3.82l-0.43,1.11l-0.89,1.37l-1.56,5.25l-1.49,4.46c-1.5,2.82 -3.04,1.18 -3.2,0l0.53,-2.67l1.08,-6.21l-3.69,8.13c-0.45,0.53 -0.11,0.6 -1.02,1.13c-1.13,0.26 -1.99,-0.6 -1.73,-1.77l0.36,-1.68l3.19,-7.13l-2.44,2.75c-0.57,0.52 -1.14,1.05 -1.71,1.57l-1.4,1.18c-0.84,0.19 -1.67,-0.14 -1.91,-1.19l1.47,-1.87l1.47,-1.94l3.09,-3.59l-3.64,2.89l-2.06,1.92c-1.05,-0.07 -1.39,-1.19 -0.03,-2.97l4.19,-5.32l4.66,-5.94l1.83,-3.55l1.84,-3.54l0.72,-3.96l0.72,-3.95l2.95,-7.5l2.95,-7.5l3.41,-5.63l3.42,-5.63l0.02,-1.87l0.02,-1.87l2.56,-7l2.56,-7l0.39,-6.75l0.4,-6.76l1.42,-2.75l1.42,-2.74l1.91,-1.73l1.9,-1.72l4.32,-1.52l4.33,-1.53l3.37,0l3.37,0l4.01,-3.62l4,-3.61l0,-1.76l0,-1.77l-1.62,-3.86l-1.61,-3.87l0.47,-7.43l0.48,-7.44l3.63,-3.32l3.62,-3.32l3.47,0l3.46,0l2.54,1.15l2.53,1.16l1.64,2.5l1.64,2.51l0.51,6.29l0.5,6.28l-1.7,5.21l-1.7,5.2l0.53,2.14l0.54,2.13l3.28,2.43l3.28,2.43l5.73,0.67l5.72,0.68l3.78,1.96l3.78,1.96l1.84,3.14l1.84,3.15l0.33,7.26l0.32,7.25l2.58,5.5l2.57,5.5l0.01,3.14l0.01,3.14l4.03,6.86l4.03,6.86l3.97,12.54l3.97,12.54l5.94,7.56c2.2,2.39 3.42,4.02 5.41,6.33l1.17,1.52l-0.63,1.01l-1.48,0l-2.04,-0.87l1.65,2.88c-0.09,0.37 0.14,0.51 -0.28,1.11c0.13,0.66 -1.65,0.22 -2.53,-0.17l-2.23,-2.2l0.74,2.65l0.15,1.53l-0.17,1.14l-0.35,1.15l-1.16,-0.05l-1.22,-1.8l-1.98,-4.08l0.25,5.22l-0.89,1.68l-1.02,0.46l-1.58,-4.66l-1.57,-4.8c-0.2,-0.58 -0.25,-0.53 -0.61,-1.73c-0.35,-1.2 -0.76,-1.31 -1.29,-0.62l-2.2,3.72l-1.15,1.13c-0.38,0.38 -0.52,0.79 -1.21,0.91l-1.37,0.38l-0.66,-1.56l1.96,-6.65l1.66,-7.64l-5.68,-9.52l-5.68,-9.51l-0.99,-0.62l-1,-0.62l-1.85,-3.68l-1.85,-3.68l-0.66,-3.65l-0.66,-3.65l-2,-2.53l-1.99,-2.53l-1.92,-4.3l-1.93,-4.3l-0.43,1.48l-0.43,1.48l-1.37,6.5l-1.38,6.5l0.11,8l0.12,8l3.7,14l3.7,14l-0.27,20l-0.27,20l0.85,7l0.84,7l2.43,5.5l2.42,5.5l0.94,7.5l0.93,7.5l0.65,20.63l0.65,20.64l-2.21,1.18l-2.21,1.18l-3.03,-0.66l-3.04,-0.67l-1.29,-3.15l-1.29,-3.15l-0.71,-3.33l-0.72,-3.33l2.2,-2.35l2.2,-2.34l-1.24,-3.82l-1.24,-3.83l-4.46,-8.93l-4.47,-8.94l-0.32,-9.27l-0.32,-9.26l-2.95,-6.3l-2.96,-6.3l-1.74,-7.5l-1.73,-7.5l-2.97,-8.5l-2.98,-8.5l-0.55,-7.75l-0.56,-7.75l-0.72,0l-0.73,0l-0.47,7.28l-0.46,7.28l-3.58,11.47l-3.57,11.47l-1.21,5.5l-1.21,5.5l-2.48,5l-2.49,5l-0.88,10.5l-0.87,10.5l-5.52,10.77l-5.52,10.78l0,1.75l0,1.76l2,1.71l2,1.71l0,1.88l0,1.89l-1.53,4.37l-1.52,4.38l-1.67,1.25l-1.66,1.25l-0.34,0l-0.34,0l-0.34,0l-0.34,0l-0.34,0l-0.34,0l-0.34,0l-0.34,0zm0.49,-2l2.18,0l1.2,-1.2l1.2,-1.2l0,-2.24l0,-2.24l1,-0.62l1,-0.62l0,-2.38l0,-2.38l-1.11,-0.69l-1.11,-0.69l-0.97,1.38l-0.97,1.38l0.64,-5.5l0.64,-5.5l3.55,-7l3.55,-7.01l-3.36,-3.66l-3.36,-3.67l-3.43,3.06l-3.42,3.06l-0.91,17.41l-0.91,17.4l1.21,1.46l1.2,1.45l2.18,0zm67.71,-0.03l1.62,0.03l1,-1.25l0.99,-1.25l-0.3,-12.91l-0.3,-12.91l-0.69,-5.09l-0.68,-5.09l-3.14,-2.65l-3.13,-2.66l-3.34,3.63l-3.33,3.62l1.61,2.72l1.61,2.73l2.47,6.58l2.48,6.58l0,3.1l0,3.09l-1.34,-1.11l-1.35,-1.11l-0.65,0.66l-0.66,0.65l0,2.28l0,2.27l1,0.62l1,0.62l0,2.39l0,2.39l1.75,1.02l1.75,1.02l1.63,0.03zm-54.85,-40.51l1.1,-1.96l0.77,-11.38l0.76,-11.39l-1.57,-3.04l-1.58,-3.05l-1.4,3.93l-1.4,3.93l-1.98,8.29l-1.98,8.29l0,0.85l0,0.86l3.09,3.31l3.1,3.31l1.09,-1.95zm43.46,0.35l1.55,-0.31l1.97,-2.64l1.97,-2.64l-2.06,-8.86l-2.06,-8.86l-1.45,-4l-1.46,-4l-1.46,3.5l-1.46,3.5l0.69,11.08l0.7,11.08l0.76,1.22l0.76,1.23l1.55,-0.3zm-56.85,-1.75l2.06,-1.11l1.2,-2.22l1.19,-2.23l2.46,-9.5l2.46,-9.5l0.07,-3.75l0.07,-3.75l-1.11,-1.11l-1.12,-1.12l-1.08,0.68l-1.09,0.67l0,3.02l0,3.03l-2.86,7.16l-2.87,7.17l-0.72,6.83l-0.73,6.84l2.07,-1.11zm68.5,-0.06l1.42,0l-0.55,-6.25l-0.56,-6.25l-2.85,-7.17l-2.85,-7.16l0,-2.96l0,-2.97l-1.37,-1.13l-1.38,-1.14l-1.26,3.05l-1.26,3.05l2.07,7.21l2.07,7.22l0.62,4.08l0.63,4.09l1.92,3.16l1.93,3.17l1.42,0zm-48.76,-28.68l2.13,-4.87l1.21,-5.83l1.21,-5.83l-1.05,-6.15l-1.05,-6.14l-0.64,-5.94l-0.63,-5.95l-1.8,5.1l-1.79,5.09l-0.72,6.35l-0.72,6.35l-1.39,3.37l-1.39,3.37l0,3.36l0,3.35l2.25,4.62l2.24,4.62l2.14,-4.87zm31.3,3.65l0.57,-0.02l1.75,-3.8l1.75,-3.81l0,-3.65l0,-3.65l-1.43,-3.77l-1.42,-3.77l-0.64,-5l-0.65,-5l-1.1,-4l-1.1,-4l-0.62,-0.74l-0.61,-0.73l-1.77,11.39l-1.77,11.39l1.6,6.15l1.59,6.14l1.64,3.45l1.65,3.45l0.56,-0.03zm-41.18,-14.55l3.25,-3.75l0.99,-3.58l1,-3.59l0,-3.16l0.01,-3.16l1.99,-6.34l1.98,-6.34l0.02,-1.24l0.01,-1.23l-3.33,-1.4l-3.33,-1.39l-2.17,-2.75l-2.17,-2.76l-0.06,-2.61l-0.07,-2.62l-0.97,2.44l-0.98,2.44l0.29,22.4l0.29,22.4l3.25,-3.76zm52.31,3.58l0.89,0l-1.02,-2.69l-1.03,-2.7l0.69,-18.14l0.69,-18.13l-0.78,-3.92l-0.78,-3.92l-0.94,3.5l-0.94,3.5l-2.05,2.2l-2.04,2.2l-2.88,0.63l-2.87,0.63l0,1.29l0,1.3l1.41,4l1.42,4.01l1.18,7.81l1.18,7.81l0.81,2.12l0.8,2.11l2.69,3.2l2.69,3.19l0.88,0zm-34.4,-20l2.52,-6.5l0.52,-5.02l0.53,-5.01l-4.61,0.36l-4.61,0.37l0.59,4.15l0.58,4.15l0.9,6l0.9,6l0.08,1l0.08,1l2.52,-6.5zm15.09,5.58l0.36,-0.36l1.43,-9.36l1.42,-9.36l0.02,-1.15l0.02,-1.15l-4.5,-0.36l-4.5,-0.35l-0.02,3l-0.02,3.01l2.72,8.22l2.71,8.22l0.36,-0.36zm-18.34,-23.83l5.92,-0.25l1.26,-3.5l1.26,-3.5l0.07,-8.35l0.08,-8.34l-1.64,-2.77l-1.63,-2.77l-2.77,-1.63l-2.77,-1.64l-1.39,0l-1.4,0l-3.54,3.75l-3.55,3.75l-2.15,6.1l-2.16,6.11l0,2.6l0,2.6l1.13,2.48l1.13,2.49l3.12,1.56l3.12,1.56l5.91,-0.25zm19.16,0.25l5.63,0l3.31,-1.57l3.3,-1.57l1.21,-2.91l1.2,-2.91l-0.49,-3.27l-0.48,-3.27l-2.11,-5.44l-2.11,-5.44l-3.69,-3.78l-3.68,-3.78l-3.93,2.21l-3.93,2.21l-1.4,2.71l-1.4,2.71l0,8l0,8.01l0.92,2.29l0.92,2.3l0.55,1.75l0.55,1.75l5.63,0zm-72.35,-2.98l1.61,-2.43l-0.09,2.6l-1.35,7.58c0.19,1.36 0.85,1.55 1.58,0.55l0.82,-2.67l2.64,-7.96l1.91,-3l1.06,1.6c1.3,2.34 2.14,5.59 4.04,7.8c0.38,-0.56 0.76,-2.16 0.42,-3.31c-0.28,-1.04 -0.88,-2.09 -1.16,-3.13l-1.22,-4.21c0.12,-0.56 -0.21,-0.99 -0.09,-1.55l-0.4,-1.75l-1.57,-1.57l-1.57,-1.57l-3.24,0l-3.24,0l-2.17,2.93l-7.38,8.14c0.13,0.93 1.58,0.69 2.84,-1.19l4.1,-3.01l-0.67,2.19c-1.79,2.03 -3.58,4.06 -5.36,6.1c0.46,0.49 1.12,0.78 1.79,0.09l1.54,-1.29l2.22,-2.2l1.85,-1.97l-1.33,4.25c-0.81,1.63 -1.22,2.87 -2.03,4.5c-0.29,1.48 0.22,2.37 1.19,2.35l3.26,-7.86zm132.75,0.92l-1.3,-2.03l-1.19,-1.62l-2.8,-3.71l1.54,0.82l3.11,2.88c0.32,0.09 0.65,0.19 0.97,0.28l1.39,-0.17l-4.68,-5.32l-3.05,-3.47l-3.04,-3.47l-3.21,1.07l-3.2,1.07l-0.62,0.62l-0.63,0.61l-0.62,4.5c-0.11,0.75 -0.75,2.13 -1.39,3.51c-0.39,1.39 -1.78,3.05 -1.17,4.18l0.81,-0.25l1.23,-1.43l2.29,-3.88l1.21,-0.96l0.98,0.56l1.66,2.51l2.45,8.97c0.92,-2.07 0.64,-4.46 -0.19,-7.28l-0.51,-1.94l0.64,0l0.64,0l1.37,1.75l1.28,3.3l1.69,3.19l0.27,-1.42l-0.09,-1.47l-1.29,-4.4l-1.62,-3.45l2.8,3.25l0.99,1.38c0.45,0.41 0.92,0.87 1.36,1.24c0.6,0.59 1.22,0.73 1.91,0.56zm-124.92,-15.05l1.55,0.12l1.31,-3.64l1.32,-3.64l6.16,-9.11l6.16,-9.11l1.22,-2.8l1.23,-2.79l0,-1.96l0,-1.95l-1.5,0l-1.5,0l-0.09,-3.25l-0.09,-3.25l-0.94,3.25l-0.94,3.25l-0.92,0l-0.92,0l-0.89,-1.58l-0.88,-1.58l-1.52,2.33l-1.53,2.33l-2.71,5.35l-2.71,5.35l-2.79,9.15l-2.79,9.15l-0.71,1.66l-0.72,1.67l1.83,0.47l1.82,0.47l1.55,0.11zm30.74,-1.25l1.13,-0.7l0.68,-3.62l0.68,-3.61l3.47,-3.85l3.48,-3.85l-1.86,0.02l-1.87,0.01l-1.03,0.74l-1.03,0.73l-1.85,6l-1.85,6l-0.54,1.41l-0.54,1.42l1.13,-0.7zm48.72,0.19l0.45,-0.45l-1.96,-6.86l-1.96,-6.87l-1.27,-0.8l-1.27,-0.81l-1.83,-0.01l-1.83,-0.02l3.58,4.18l3.58,4.18l0,1.25l0,1.26l1.03,2.7l1.02,2.71l0.46,-0.46zm30.59,0.18l1.74,0l1.38,-0.53l1.38,-0.53l-2.41,-7.72l-2.41,-7.72l-2.96,-7.1l-2.96,-7.1l-1.99,-3.27l-1.98,-3.26l-1.3,1.77l-1.29,1.77l-1.03,-0.64l-1.04,-0.64l-0.68,-5.5l-0.69,-5.5l-1.09,-0.67l-1.09,-0.67l0.72,2.4l0.73,2.41l0.56,4.25l0.57,4.25l-1.63,0l-1.63,0l0,1.53l0,1.53l1.47,3.52l1.47,3.52l5.44,8.2l5.44,8.2l1.77,3.75l1.78,3.75l1.73,0zm-51.88,-12.59l3.73,-3.36l2.52,-0.63l2.53,-0.64l0,-0.77l0,-0.78l-1.5,-2.87l-1.49,-2.86l-0.01,-3.1l0,-3.1l-1.08,-3.1l-1.08,-3.11l-3.11,-1.97l-3.11,-1.97l-3.62,1.85l-3.61,1.84l-1.19,2.63l-1.2,2.62l0,4.01l0,4l-1.58,3.04l-1.57,3.05l0.32,0.18l0.33,0.19l3.66,1.66l3.65,1.66l1.85,2.45l1.84,2.44l3.72,-3.36zm-21.64,-4.8l1.58,-0.61l0.7,0l0.69,0l-0.36,-3.79l-0.36,-3.78l-1.89,-2.47l-1.9,-2.46l-0.02,6.86l-0.02,6.85l1.58,-0.6zm38.14,0.27l1.22,0.12l-0.22,-6.99l-0.22,-6.99l-0.18,-0.01l-0.19,-0.01l-1.98,2.78l-1.98,2.79l-0.68,3.62l-0.68,3.63l1.84,0.47l1.85,0.48l1.22,0.11zm-33.04,-2.88l0.42,0l1.45,-3.47l1.45,-3.47l0,-4.18l0,-4.19l3.94,-3.63l3.93,-3.64l-4.59,-8.46l-4.58,-8.46l-0.17,-0.23l-0.17,-0.24l-3.93,2.04l-3.93,2.03l-2.57,-0.49l-2.57,-0.49l1.18,9.87l1.19,9.88l3.69,5.02l3.69,5.03l0.58,3.54l0.57,3.54l0.42,0zm27.52,-3.32l0.75,-3.61l3.7,-5.15l3.69,-5.14l1.3,-9.14l1.29,-9.14l0.03,-0.82l0.04,-0.81l-1.97,0.62l-1.98,0.63l-4.68,-2.07l-4.68,-2.07l-0.23,0.26l-0.23,0.26l-4.66,8.67l-4.66,8.66l3,1.78l3,1.77l0.97,2.56l0.96,2.56l0.58,4.22l0.59,4.21l1.22,2.68l1.22,2.68l0.75,-3.61zm-50.35,-12.68l2.06,0l2.65,-4.51l2.64,-4.51l1.46,-4.74l1.47,-4.74l-1.23,-5.25l-1.22,-5.25l-0.89,0l-0.89,0l-2.93,1.52l-2.94,1.51l-1.62,3.15l-1.63,3.15l-1.89,5.49l-1.89,5.49l0,3.91l0,3.9l1,-0.62l1,-0.62l0.01,-3.19l0.02,-3.19l0.6,-2.25l0.6,-2.25l2.01,0l2.01,0l-0.5,4.75l-0.51,4.75l-0.73,1.75l-0.73,1.75l2.07,0zm72.81,0l1.55,0l-0.68,-1.75l-0.67,-1.75l-0.57,-4.75l-0.57,-4.75l2.02,0l2.03,0l0.6,2.25l0.6,2.25l0.02,3.19l0.01,3.19l0.88,0.55l0.89,0.55l0.45,-2.35l0.45,-2.36l-1.31,-5.12l-1.31,-5.12l-2.53,-4.99l-2.53,-4.99l-2.95,-1.53l-2.94,-1.52l-0.92,0l-0.92,0l-1.03,5.23l-1.03,5.23l1.8,5.8l1.81,5.8l2.64,3.47l2.65,3.47l1.56,0zm-74.57,-6.92l0.97,-2.42l-1.03,-1.03l-1.03,-1.03l0.06,3.45l0.07,3.45l0.96,-2.42zm37.9,-0.1l0.51,-0.02l4.28,-8.04l4.28,-8.04l0.97,-7.64l0.97,-7.63l2.05,-3.92l2.04,-3.93l-0.29,-0.2l-0.3,-0.2l-7.25,-2.07l-7.25,-2.06l-7.25,2.06l-7.25,2.07l-0.29,0.19l-0.29,0.2l2.06,3.5l2.07,3.5l0.55,6.88l0.55,6.87l4.67,9.25l4.67,9.25l0.5,-0.02zm-21.45,-14.98l1.24,0l4.3,-1.93l4.31,-1.92l-0.28,-5.32l-0.29,-5.31l-1.44,-3.46l-1.45,-3.47l-2.5,2.7l-2.5,2.69l-2.96,1.54l-2.97,1.53l-0.15,1.73l-0.15,1.72l0.24,3l0.23,3l1.57,1.75l1.57,1.75l1.23,0zm42.64,-0.08l1.68,0.08l1.43,-1.43l1.43,-1.44l0.69,-4.31l0.7,-4.32l-2.81,-2.21l-2.8,-2.22l-3.19,-2.58l-3.19,-2.58l-0.97,1.8l-0.96,1.8l-1.1,5.93l-1.09,5.93l0,0.78l0,0.77l4.25,1.96l4.25,1.95l1.68,0.09zm-58.59,-5.11l0.91,-0.45l4.15,-1.79l4.14,-1.79l0.6,-2.64l0.61,-2.64l4.74,-3l4.75,-3l0.35,-1.89l0.36,-1.88l-4.85,0.46l-4.85,0.47l-3.8,1.81l-3.79,1.8l-1.47,2.85l-1.47,2.85l-0.64,4.65l-0.64,4.65l0.9,-0.46zm75.22,-2.9l0.31,-2.85l-1.94,-4.38l-1.94,-4.38l-4.44,-2.15l-4.43,-2.15l-4.19,0l-4.18,0l0,1.05l0,1.04l2.31,2.21l2.31,2.2l3.19,1.7l3.19,1.71l0,2.54l0,2.55l1.26,0l1.27,0l3.48,1.88l3.49,1.88l0.31,-2.85zm-48.62,-19.15l1.68,-0.65l4.07,-1.09l4.06,-1.1l0,-2.96l0,-2.96l-1.75,0.03l-1.75,0.04l-4,4.66l-3.99,4.67l1.68,-0.64zm21.57,0.14l0.25,0.1l-3.25,-4.82l-3.26,-4.83l-1.75,0.44l-1.75,0.44l0,2.83l0,2.82l4.75,1.46l4.75,1.45l0.26,0.11zm-11.09,-10.93l3.17,0.03l1.62,-0.62l1.62,-0.63l1.96,-3.83l1.96,-3.84l0,-4.49l0,-4.5l-1.2,-2.62l-1.19,-2.62l-2.76,-1.43l-2.75,-1.42l-2.1,0l-2.1,0l-2.76,1.42l-2.75,1.43l-1.2,2.62l-1.19,2.62l0,5.23l0,5.23l1.7,2.48l1.71,2.47l1.54,1.22l1.55,1.22l3.17,0.03z"/>
    </g>
</svg>